<svg width="22" height="17" viewBox="0 0 22 17" fill="none" xmlns="http://www.w3.org/2000/svg">
<path d="M2.2 17C1.595 17 1.07727 16.7921 0.6468 16.3763C0.216333 15.9605 0.000733333 15.4601 0 14.875V2.125C0 1.54062 0.2156 1.04054 0.6468 0.62475C1.078 0.208958 1.59573 0.000708333 2.2 0H19.8C20.405 0 20.9231 0.20825 21.3543 0.62475C21.7855 1.04125 22.0007 1.54133 22 2.125V14.875C22 15.4594 21.7848 15.9598 21.3543 16.3763C20.9238 16.7928 20.4057 17.0007 19.8 17H2.2ZM19.8 4.25L11.5775 9.21719C11.4858 9.27031 11.3898 9.31033 11.2893 9.33725C11.1888 9.36417 11.0924 9.37727 11 9.37656C10.9076 9.37585 10.8115 9.36275 10.7118 9.33725C10.6121 9.31175 10.5156 9.27173 10.4225 9.21719L2.2 4.25V14.875H19.8V4.25ZM11 7.4375L19.8 2.125H2.2L11 7.4375ZM2.2 4.51562V2.94844V2.975V2.96225V4.51562Z" fill="black"/>
</svg>
