<svg width="160" height="160" viewBox="0 0 160 160" fill="none" xmlns="http://www.w3.org/2000/svg">
<path d="M56.3335 64.2213L82.0355 83.5017C83.6278 84.6959 85.6127 85.2441 87.5922 85.0364C89.5717 84.8286 91.3995 83.8803 92.7092 82.3815L143.111 24.7769" stroke="white" stroke-width="18" stroke-linecap="round"/>
<path d="M151 79.9987C151 94.834 146.354 109.297 137.712 121.356C129.071 133.414 116.87 142.464 102.822 147.232C88.7739 152.001 73.5851 152.249 59.3887 147.942C45.1923 143.636 32.7016 134.99 23.6708 123.221C14.6399 111.451 9.52277 97.1477 9.03794 82.3203C8.55311 67.493 12.725 52.8862 20.9676 40.5516C29.2103 28.2169 41.1096 18.774 54.9943 13.5492C68.879 8.32429 84.0516 7.57992 98.3811 11.4206" stroke="white" stroke-width="18" stroke-linecap="round"/>
</svg>
