<svg width="22" height="27" viewBox="0 0 22 27" fill="none" xmlns="http://www.w3.org/2000/svg">
<path fill-rule="evenodd" clip-rule="evenodd" d="M4.85754 11.315C4.85754 9.68588 5.5047 8.12352 6.65664 6.97158C7.80858 5.81964 9.37094 5.17249 11 5.17249C12.6291 5.17249 14.1915 5.81964 15.3434 6.97158C16.4954 8.12352 17.1425 9.68588 17.1425 11.315C17.1425 12.9441 16.4954 14.5064 15.3434 15.6584C14.1915 16.8103 12.6291 17.4575 11 17.4575C9.37094 17.4575 7.80858 16.8103 6.65664 15.6584C5.5047 14.5064 4.85754 12.9441 4.85754 11.315ZM11 7.11222C9.88539 7.11222 8.81641 7.55501 8.02824 8.34318C7.24007 9.13135 6.79728 10.2003 6.79728 11.315C6.79728 12.4296 7.24007 13.4986 8.02824 14.2868C8.81641 15.0749 9.88539 15.5177 11 15.5177C12.1147 15.5177 13.1837 15.0749 13.9718 14.2868C14.76 13.4986 15.2028 12.4296 15.2028 11.315C15.2028 10.2003 14.76 9.13135 13.9718 8.34318C13.1837 7.55501 12.1147 7.11222 11 7.11222Z" fill="black"/>
<path fill-rule="evenodd" clip-rule="evenodd" d="M0.0392153 9.83703C0.260831 7.15629 1.48213 4.65682 3.46078 2.8346C5.43942 1.01238 8.03079 0.000589395 10.7207 0H11.2793C13.9692 0.000589395 16.5606 1.01238 18.5392 2.8346C20.5179 4.65682 21.7392 7.15629 21.9608 9.83703C22.2073 12.8234 21.2847 15.7887 19.3874 18.1081L13.1893 25.6872C12.9241 26.0116 12.59 26.273 12.2114 26.4525C11.8328 26.6319 11.419 26.7251 11 26.7251C10.581 26.7251 10.1672 26.6319 9.78858 26.4525C9.40995 26.273 9.07594 26.0116 8.81069 25.6872L2.61259 18.1081C0.715321 15.7887 -0.207302 12.8234 0.0392153 9.83703ZM10.7207 1.93973C8.51794 1.94066 6.39601 2.76948 4.77579 4.26179C3.15558 5.75409 2.15545 7.80085 1.97378 9.99609C1.76853 12.4814 2.5363 14.9493 4.11524 16.8796L10.3133 24.46C10.3967 24.562 10.5016 24.6442 10.6206 24.7006C10.7396 24.757 10.8696 24.7863 11.0013 24.7863C11.133 24.7863 11.263 24.757 11.382 24.7006C11.501 24.6442 11.6059 24.562 11.6893 24.46L17.8873 16.8796C19.4654 14.9489 20.2322 12.4811 20.0262 9.99609C19.8445 7.80063 18.8442 5.75368 17.2237 4.26135C15.6032 2.76901 13.481 1.94034 11.278 1.93973H10.7207Z" fill="black"/>
</svg>
