<?xml version="1.0" encoding="UTF-8"?>
<svg id="Layer_2" data-name="Layer 2" xmlns="http://www.w3.org/2000/svg" viewBox="0 0 397.42 280.32">
  <defs>
    <style>
      .cls-1 {
        fill: #dfd0b8;
      }
    </style>
  </defs>
  <g id="Layer_2-2" data-name="Layer 2">
    <g>
      <path class="cls-1" d="m323,42.42c10.37,24.99,31.31,44.64,55.75,52.33.78.25,1.64.48,2.39.15.78-.34,1.24-1.19,1.63-2,6.28-12.77,9.88-27.05,10.46-41.47.09-2.3.08-4.73-1.01-6.72-2.1-3.83-7.02-4.26-11.16-4.24-16,.08-32.01.17-48.01.25l-10.05,1.7Z"/>
      <path class="cls-1" d="m75.94,99.84c-2.69,10.01-5.58,19.97-8.89,29.79-1.66,4.9-3.42,9.77-5.31,14.59-.45,1.15-.91,2.29-1.38,3.44-.23.57-.47,1.14-.71,1.71-.08.18-.47,1.1-.15.35.35-.81-.17.4-.24.56-1.04,2.41-2.11,4.8-3.22,7.18-4.08,8.71-8.73,17.16-14.05,25.18-1.25,1.88-2.53,3.73-3.85,5.55-.64.88-1.29,1.76-1.95,2.63-.16.22-.33.43-.49.65-.13.17-.69.88-.15.2s-.03.03-.16.2c-.21.27-.42.54-.63.8-2.84,3.57-5.83,7.01-8.98,10.31-3.52,3.67-7.24,7.16-11.15,10.41-.52.43-1.05.86-1.58,1.28-.21.17-.42.34-.64.51-.15.12-1.08.88-.35.28.67-.55-.03.02-.2.15-.27.21-.54.41-.81.61-.54.41-1.09.81-1.64,1.21-2.09,1.51-4.23,2.95-6.42,4.32-2.66,1.67-3.95,5.43-2.15,8.21s5.37,3.94,8.21,2.15c16.37-10.28,29.95-24.26,41-40.04,11.74-16.78,20.28-35.61,27.07-54.87,3.96-11.23,7.31-22.67,10.41-34.17.81-3.03-1.02-6.66-4.19-7.38s-6.51.95-7.38,4.19h-.02Z"/>
      <path class="cls-1" d="m216.76,278.64c6.37-7.14,9.65-16.06,11.8-25.25,1.92-8.19,3.45-16.44,3.72-24.87.47-14.71-1.64-29.59-4.72-43.94-.66-3.05-1.34-6.11-2.18-9.12l-5.79,7.6c41.54,1.21,85.27-2.28,121.42-24.73,7.95-4.94,15.47-10.73,22.12-17.32,6.14-6.08,11.93-13.01,16.21-20.54,3.19-5.61,5.75-11.66,8.31-17.58,3.17-7.32,5.82-14.7,7.2-22.6.9-5.11,1.34-10.26,1.77-15.42.4-4.81.8-9.63.8-14.46,0-5.36-.2-11.04-4.6-14.8-3.12-2.66-6.7-3.27-10.66-3.3-8.91-.07-17.81-.13-26.72-.19-29.04-.19-58.08-.35-87.12-.46-30.87-.12-61.75-.2-92.62-.07-3.07.01-6.13.03-9.2.05l4.24,1.76c-6.27-5.04-12.64-9.99-19.2-14.63-4.25-3.01-8.59-5.39-13.32-7.6-6.39-2.97-12.95-5.68-19.75-7.58C105.75.01,92.5-.45,79.38.31c-11.84.69-23.49,3.95-33.11,11.11-5.34,3.97-10.35,8.56-13.25,14.66-2.79,5.89-4.15,12.37-3.83,18.89.72,14.81,8.78,28.1,18.58,38.78,16.56,18.06,41.91,31.5,66.93,27.69,12.38-1.88,26.14-9.67,30.6-21.92,2.42-6.65.61-14.13-3.04-19.95s-8.08-10.95-12.79-15.73c-2.51-2.55-5.16-4.97-7.98-7.17-2.47-1.92-6.11-2.59-8.49,0-1.97,2.15-2.65,6.43,0,8.49,3.2,2.49,6.18,5.27,8.98,8.2,1.36,1.42,2.68,2.88,3.96,4.37.58.67,1.15,1.36,1.71,2.05.22.27.43.53.65.8.21.26.42.53.62.79-.44-.57-.45-.59-.05-.06,1.59,2.13,3.08,4.29,4.33,6.64.84,1.57-.14-.57.19.38.14.43.31.84.44,1.27.25.82.44,1.65.58,2.49-.25-1.5-.02.85-.03,1.29,0,.33-.25,1.82.04.26-.08.46-.17.91-.29,1.36s-.28.89-.42,1.33c-.11.34-.51.87.06-.13-.4.7-.73,1.43-1.17,2.11-.1.16-1.08,1.48-.24.42-.21.27-.44.54-.66.8-.71.82-1.48,1.59-2.29,2.32-.43.39-.87.75-1.31,1.12-.82.7.02,0,.17-.12-.64.48-1.29.95-1.96,1.4-1.31.87-2.67,1.67-4.08,2.38-.66.33-1.39.79-2.11.99.14-.04,1.28-.5.27-.12-.39.15-.78.3-1.18.44-1.45.52-2.92.95-4.42,1.3-.68.16-1.37.3-2.05.43-.28.05-.55.1-.83.14l-.42.07c-.67.1-.55.08.34-.04-.5.26-1.56.17-2.1.21-.85.06-1.7.1-2.55.12-1.43.03-2.86,0-4.29-.09-.72-.05-1.44-.11-2.16-.18-.42-.04-.89-.05-1.3-.15.94.22.63.09-.14-.04-3.1-.49-6.15-1.23-9.14-2.18-1.53-.48-3.04-1.02-4.54-1.6-.36-.14-.72-.29-1.07-.43-1.41-.56.79.39-.06-.03s-1.71-.76-2.55-1.16c-3.06-1.46-6.04-3.11-8.9-4.93-1.35-.86-2.67-1.75-3.97-2.67-.65-.47-1.29-.95-1.94-1.42-1.25-.92.64.52-.12-.09-.44-.35-.88-.7-1.32-1.05-2.61-2.12-5.1-4.39-7.46-6.8-1.12-1.14-2.2-2.31-3.25-3.5-.52-.6-1.04-1.2-1.54-1.81-.3-.37-.6-.73-.9-1.1-.13-.16-1.1-1.44-.23-.28-2-2.68-3.89-5.44-5.56-8.34-.51-.89-1-1.8-1.47-2.72-.25-.5-.49-.99-.73-1.5.04.08-.82-1.88-.43-.93-.84-2.04-1.52-4.15-2.05-6.29-.22-.91-.42-1.83-.58-2.75-.06-.36-.12-.72-.17-1.08.21,1.4-.02-.34-.04-.52-.17-1.84-.2-3.69-.09-5.54.03-.42.33-2.88.08-1.23.12-.75.24-1.5.4-2.25.33-1.55.78-3.07,1.34-4.56.04-.12.61-1.33.16-.43-.45.9.14-.28.19-.39.28-.59.58-1.17.9-1.74s.63-1.08.98-1.61c.2-.3.42-.6.62-.9.71-1.06-.9,1.03-.08.09,1-1.15,2.04-2.24,3.15-3.29.82-.77,1.66-1.51,2.52-2.22.18-.15,1.17-.95.4-.35.45-.35.92-.69,1.39-1.02,1.63-1.16,3.33-2.22,5.09-3.18.75-.41,1.52-.8,2.29-1.17.3-.14.61-.29.91-.43s.6-.27.91-.4c-.68.29-.71.3-.09.05,2.91-1.09,5.84-2.02,8.89-2.66,1.24-.26,2.52-.38,3.76-.65-1.95.43,0,0,.47-.04.63-.07,1.27-.13,1.9-.18,6.29-.51,12.66-.64,18.96-.33,1.85.09,3.69.23,5.53.42.43.04.85.09,1.28.14.22.03,1.92.25.43.04.91.13,1.82.27,2.73.42,3.51.6,6.99,1.41,10.4,2.43s6.88,2.27,10.22,3.64c-.06-.03,1.57.66.79.33s.88.38.8.35c.86.38,1.72.76,2.58,1.15,1.98.91,3.94,1.85,5.9,2.82,4.47,2.22,8.52,5.23,12.52,8.19,1.15.85,2.28,1.7,3.42,2.56.53.4,1.05.8,1.58,1.2.41.31,2.35,1.84.88.67,1.65,1.32,3.34,2.6,4.99,3.91.97.77,2.01,1.8,3.08,2.42,1.81,1.06,4.01.81,6.02.8,1.41,0,2.83,0,4.24-.02,12.24-.06,24.48-.07,36.72-.07,27.57,0,55.15.1,82.72.24,23.19.11,46.38.25,69.57.4,6.94.05,13.89.06,20.83.15.38,0,.76.02,1.14.02-1.32-.03-.38.04.04.11.89.15-1.25-.58.05.06s-.94-.73.23.2c.4.32.28.72-.08-.14l.24.4c.3.6.28.55-.05-.15.13.57.16.61.1.14-.05-.51-.04-.43.02.23.29,4.13.19,8.27-.06,12.4-.24,3.94-.58,7.88-.93,11.81-.1,1.14-.21,2.28-.34,3.41-.05.4-.09.8-.14,1.2-.24,1.95.2-1.15-.11.76-.34,2.11-.7,4.22-1.17,6.31-.83,3.69-1.89,7.35-3.21,10.89-.35.94-.73,1.86-1.11,2.78-.13.33-.3.65-.41.99.04-.11.57-1.35.16-.39-.32.74-.63,1.48-.96,2.22-2.28,5.24-4.62,10.49-7.29,15.55-1.37,2.6-3.02,5.05-4.73,7.44-.53.74-1.06,1.46-1.61,2.19-.7.93-.2.27-.05.07-.33.43-.67.85-1.01,1.27-1.25,1.54-2.54,3.05-3.88,4.51-2.55,2.8-5.26,5.46-8.09,7.98-1.35,1.2-2.73,2.37-4.14,3.5-.42.34-.85.68-1.27,1.01-.91.72-.27.21-.07.06-.87.66-1.74,1.31-2.62,1.94-6.35,4.58-13.13,8.55-20.19,11.93-1.65.79-3.31,1.55-4.98,2.27-.33.15-.67.29-1.01.43,1.2-.51-.48.19-.59.24-1.01.41-2.03.81-3.05,1.21-3.64,1.39-7.34,2.64-11.08,3.75-8.86,2.64-17.94,4.54-27.09,5.86-1.63.24-3.9.52-6.27.79s-4.83.49-7.25.69c-4.63.38-9.26.63-13.9.79-9.06.31-18.13.25-27.2-.02-3.91-.11-6.81,3.93-5.79,7.6,2.21,7.96,3.74,16.17,4.91,24.34.07.47.13.93.2,1.4-.03-.2-.17-1.31-.02-.18.12.97.24,1.93.35,2.9.21,1.82.39,3.65.55,5.47.33,3.93.53,7.87.54,11.81,0,3.75-.14,7.51-.53,11.24-.05.5-.11,1-.17,1.49-.14,1.15-.02.1.02-.12-.15.97-.3,1.94-.48,2.91-.36,1.96-.79,3.9-1.2,5.85-.98,4.61-2.03,9.21-3.61,13.65-.19.53-.38,1.05-.58,1.57-.13.35-.27.69-.41,1.03.24-.58.22-.55-.06.09-.48,1-.95,1.99-1.49,2.96s-1.11,1.9-1.73,2.81c-.31.46-.63.91-.97,1.35.72-.92-.7.78-.84.93-2.09,2.34-2.48,6.21,0,8.49,2.28,2.1,6.25,2.5,8.49,0h0v.05Z"/>
      <path class="cls-1" d="m267.36,146.04c15.36,9.49,33.54,14.41,51.58,14.07,5.26-.1,10.52-.68,15.7-1.63,2.32-.43,3.85-3.36,3.14-5.54-.8-2.49-3.05-3.6-5.54-3.14-.97.18-1.94.35-2.92.49-.28.04-.56.08-.84.12.19-.03.84-.1-.06,0-.56.07-1.12.14-1.68.2-2.1.22-4.21.37-6.33.45-4.23.15-8.46,0-12.67-.45-.49-.05-.98-.11-1.47-.17-.12,0-1-.13-.45-.05.5.07-.19-.03-.24-.03-1.12-.16-2.23-.34-3.34-.54-2.08-.38-4.15-.82-6.2-1.34-4.11-1.04-8.11-2.4-12.05-3.96-.13-.05-.8-.33-.1-.03-.26-.11-.52-.22-.78-.33-.58-.25-1.16-.51-1.74-.78-1.09-.5-2.17-1.03-3.23-1.57-2.13-1.09-4.22-2.28-6.26-3.54s-5.04-.5-6.16,1.61-.53,4.83,1.61,6.16h.03Z"/>
      <path class="cls-1" d="m186.79,84.15c2.69,0,5.52-1.17,7.42-3.08s3.19-4.81,3.08-7.42c-.25-5.69-4.61-10.5-10.5-10.5-2.69,0-5.52,1.17-7.42,3.08s-3.19,4.81-3.08,7.42c.25,5.69,4.61,10.5,10.5,10.5h0Z"/>
      <path class="cls-1" d="m61.4,152.69c-4.4-4.42-13.19-2.6-15.46,3.21-1.64,4.17-.05,9.06,2.87,12.46,2.92,3.39,6.98,5.57,11.01,7.53,19.37,9.46,40.09,15.79,60.71,22.08,7.25,2.21,14.49,4.42,21.74,6.63,28.99,8.85,58.15,17.73,88.22,21.53,2.91.37,12.89,2.7,9.78-12.22-3.12-14.92-13.61-13.09-18.1-14.01-18.66-3.8-37.32-7.6-55.83-12.04-37.9-9.1-67.37-20.13-103.6-34.52l-1.33-.67v.02Z"/>
    </g>
  </g>
</svg>