<?xml version="1.0" encoding="utf-8"?>
<!-- Generator: Adobe Illustrator 27.4.1, SVG Export Plug-In . SVG Version: 6.00 Build 0)  -->
<svg version="1.1" id="Layer_2_00000039121539602198956430000004091922394284733332_"
	 xmlns="http://www.w3.org/2000/svg" xmlns:xlink="http://www.w3.org/1999/xlink" x="0px" y="0px" viewBox="0 0 1187.38 280.37"
	 style="enable-background:new 0 0 1187.38 280.37;" xml:space="preserve">
<style type="text/css">
	.st0{fill:#DFD0B8;}
</style>
<g id="Layer_1-2">
	<g>
		<path class="st0" d="M323.01,42.42c10.37,24.99,31.31,44.64,55.75,52.33c0.78,0.25,1.64,0.48,2.39,0.15
			c0.78-0.34,1.24-1.19,1.63-2c6.28-12.77,9.88-27.05,10.46-41.47c0.09-2.3,0.08-4.73-1.01-6.72c-2.1-3.83-7.02-4.26-11.16-4.24
			c-16,0.08-32.01,0.17-48.01,0.25C333.06,40.72,323.01,42.42,323.01,42.42z"/>
		<path class="st0" d="M75.95,99.84c-2.69,10.01-5.58,19.97-8.89,29.79c-1.66,4.9-3.42,9.77-5.31,14.59
			c-0.45,1.15-0.91,2.29-1.38,3.44c-0.23,0.57-0.47,1.14-0.71,1.71c-0.08,0.18-0.47,1.1-0.15,0.35c0.35-0.81-0.17,0.4-0.24,0.56
			c-1.04,2.41-2.11,4.8-3.22,7.18c-4.08,8.71-8.73,17.16-14.05,25.18c-1.25,1.88-2.53,3.73-3.85,5.55
			c-0.64,0.88-1.29,1.76-1.95,2.63c-0.16,0.22-0.33,0.43-0.49,0.65c-0.13,0.17-0.69,0.88-0.15,0.2s-0.03,0.03-0.16,0.2
			c-0.21,0.27-0.42,0.54-0.63,0.8c-2.84,3.57-5.83,7.01-8.98,10.31c-3.52,3.67-7.24,7.16-11.15,10.41
			c-0.52,0.43-1.05,0.86-1.58,1.28c-0.21,0.17-0.42,0.34-0.64,0.51c-0.15,0.12-1.08,0.88-0.35,0.28c0.67-0.55-0.03,0.02-0.2,0.15
			c-0.27,0.21-0.54,0.41-0.81,0.61c-0.54,0.41-1.09,0.81-1.64,1.21c-2.09,1.51-4.23,2.95-6.42,4.32c-2.66,1.67-3.95,5.43-2.15,8.21
			s5.37,3.94,8.21,2.15c16.37-10.28,29.95-24.26,41-40.04c11.74-16.78,20.28-35.61,27.07-54.87c3.96-11.23,7.31-22.67,10.41-34.17
			c0.81-3.03-1.02-6.66-4.19-7.38s-6.51,0.95-7.38,4.19l0,0L75.95,99.84z"/>
		<path class="st0" d="M216.77,278.64c6.37-7.14,9.65-16.06,11.8-25.25c1.92-8.19,3.45-16.44,3.72-24.87
			c0.47-14.71-1.64-29.59-4.72-43.94c-0.66-3.05-1.34-6.11-2.18-9.12l-5.79,7.6c41.54,1.21,85.27-2.28,121.42-24.73
			c7.95-4.94,15.47-10.73,22.12-17.32c6.14-6.08,11.93-13.01,16.21-20.54c3.19-5.61,5.75-11.66,8.31-17.58
			c3.17-7.32,5.82-14.7,7.2-22.6c0.9-5.11,1.34-10.26,1.77-15.42c0.4-4.81,0.8-9.63,0.8-14.46c0-5.36-0.2-11.04-4.6-14.8
			c-3.12-2.66-6.7-3.27-10.66-3.3c-8.91-0.07-17.81-0.13-26.72-0.19c-29.04-0.19-58.08-0.35-87.12-0.46
			c-30.87-0.12-61.75-0.2-92.62-0.07c-3.07,0.01-6.13,0.03-9.2,0.05l4.24,1.76c-6.27-5.04-12.64-9.99-19.2-14.63
			c-4.25-3.01-8.59-5.39-13.32-7.6c-6.39-2.97-12.95-5.68-19.75-7.58c-12.72-3.58-25.97-4.04-39.09-3.28
			C67.55,1,55.9,4.26,46.28,11.42c-5.34,3.97-10.35,8.56-13.25,14.66c-2.79,5.89-4.15,12.37-3.83,18.89
			c0.72,14.81,8.78,28.1,18.58,38.78c16.56,18.06,41.91,31.5,66.93,27.69c12.38-1.88,26.14-9.67,30.6-21.92
			c2.42-6.65,0.61-14.13-3.04-19.95s-8.08-10.95-12.79-15.73c-2.51-2.55-5.16-4.97-7.98-7.17c-2.47-1.92-6.11-2.59-8.49,0
			c-1.97,2.15-2.65,6.43,0,8.49c3.2,2.49,6.18,5.27,8.98,8.2c1.36,1.42,2.68,2.88,3.96,4.37c0.58,0.67,1.15,1.36,1.71,2.05
			c0.22,0.27,0.43,0.53,0.65,0.8c0.21,0.26,0.42,0.53,0.62,0.79c-0.44-0.57-0.45-0.59-0.05-0.06c1.59,2.13,3.08,4.29,4.33,6.64
			c0.84,1.57-0.14-0.57,0.19,0.38c0.14,0.43,0.31,0.84,0.44,1.27c0.25,0.82,0.44,1.65,0.58,2.49c-0.25-1.5-0.02,0.85-0.03,1.29
			c0,0.33-0.25,1.82,0.04,0.26c-0.08,0.46-0.17,0.91-0.29,1.36s-0.28,0.89-0.42,1.33c-0.11,0.34-0.51,0.87,0.06-0.13
			c-0.4,0.7-0.73,1.43-1.17,2.11c-0.1,0.16-1.08,1.48-0.24,0.42c-0.21,0.27-0.44,0.54-0.66,0.8c-0.71,0.82-1.48,1.59-2.29,2.32
			c-0.43,0.39-0.87,0.75-1.31,1.12c-0.82,0.7,0.02,0,0.17-0.12c-0.64,0.48-1.29,0.95-1.96,1.4c-1.31,0.87-2.67,1.67-4.08,2.38
			c-0.66,0.33-1.39,0.79-2.11,0.99c0.14-0.04,1.28-0.5,0.27-0.12c-0.39,0.15-0.78,0.3-1.18,0.44c-1.45,0.52-2.92,0.95-4.42,1.3
			c-0.68,0.16-1.37,0.3-2.05,0.43c-0.28,0.05-0.55,0.1-0.83,0.14l-0.42,0.07c-0.67,0.1-0.55,0.08,0.34-0.04
			c-0.5,0.26-1.56,0.17-2.1,0.21c-0.85,0.06-1.7,0.1-2.55,0.12c-1.43,0.03-2.86,0-4.29-0.09c-0.72-0.05-1.44-0.11-2.16-0.18
			c-0.42-0.04-0.89-0.05-1.3-0.15c0.94,0.22,0.63,0.09-0.14-0.04c-3.1-0.49-6.15-1.23-9.14-2.18c-1.53-0.48-3.04-1.02-4.54-1.6
			c-0.36-0.14-0.72-0.29-1.07-0.43c-1.41-0.56,0.79,0.39-0.06-0.03s-1.71-0.76-2.55-1.16c-3.06-1.46-6.04-3.11-8.9-4.93
			c-1.35-0.86-2.67-1.75-3.97-2.67c-0.65-0.47-1.29-0.95-1.94-1.42c-1.25-0.92,0.64,0.52-0.12-0.09c-0.44-0.35-0.88-0.7-1.32-1.05
			c-2.61-2.12-5.1-4.39-7.46-6.8c-1.12-1.14-2.2-2.31-3.25-3.5c-0.52-0.6-1.04-1.2-1.54-1.81c-0.3-0.37-0.6-0.73-0.9-1.1
			c-0.13-0.16-1.1-1.44-0.23-0.28c-2-2.68-3.89-5.44-5.56-8.34c-0.51-0.89-1-1.8-1.47-2.72c-0.25-0.5-0.49-0.99-0.73-1.5
			c0.04,0.08-0.82-1.88-0.43-0.93c-0.84-2.04-1.52-4.15-2.05-6.29c-0.22-0.91-0.42-1.83-0.58-2.75c-0.06-0.36-0.12-0.72-0.17-1.08
			c0.21,1.4-0.02-0.34-0.04-0.52c-0.17-1.84-0.2-3.69-0.09-5.54c0.03-0.42,0.33-2.88,0.08-1.23c0.12-0.75,0.24-1.5,0.4-2.25
			c0.33-1.55,0.78-3.07,1.34-4.56c0.04-0.12,0.61-1.33,0.16-0.43c-0.45,0.9,0.14-0.28,0.19-0.39c0.28-0.59,0.58-1.17,0.9-1.74
			s0.63-1.08,0.98-1.61c0.2-0.3,0.42-0.6,0.62-0.9c0.71-1.06-0.9,1.03-0.08,0.09c1-1.15,2.04-2.24,3.15-3.29
			c0.82-0.77,1.66-1.51,2.52-2.22c0.18-0.15,1.17-0.95,0.4-0.35c0.45-0.35,0.92-0.69,1.39-1.02c1.63-1.16,3.33-2.22,5.09-3.18
			c0.75-0.41,1.52-0.8,2.29-1.17c0.3-0.14,0.61-0.29,0.91-0.43s0.6-0.27,0.91-0.4c-0.68,0.29-0.71,0.3-0.09,0.05
			c2.91-1.09,5.84-2.02,8.89-2.66c1.24-0.26,2.52-0.38,3.76-0.65c-1.95,0.43,0,0,0.47-0.04c0.63-0.07,1.27-0.13,1.9-0.18
			c6.29-0.51,12.66-0.64,18.96-0.33c1.85,0.09,3.69,0.23,5.53,0.42c0.43,0.04,0.85,0.09,1.28,0.14c0.22,0.03,1.92,0.25,0.43,0.04
			c0.91,0.13,1.82,0.27,2.73,0.42c3.51,0.6,6.99,1.41,10.4,2.43s6.88,2.27,10.22,3.64c-0.06-0.03,1.57,0.66,0.79,0.33
			s0.88,0.38,0.8,0.35c0.86,0.38,1.72,0.76,2.58,1.15c1.98,0.91,3.94,1.85,5.9,2.82c4.47,2.22,8.52,5.23,12.52,8.19
			c1.15,0.85,2.28,1.7,3.42,2.56c0.53,0.4,1.05,0.8,1.58,1.2c0.41,0.31,2.35,1.84,0.88,0.67c1.65,1.32,3.34,2.6,4.99,3.91
			c0.97,0.77,2.01,1.8,3.08,2.42c1.81,1.06,4.01,0.81,6.02,0.8c1.41,0,2.83-0.01,4.24-0.02c12.24-0.06,24.48-0.07,36.72-0.07
			c27.57,0,55.15,0.1,82.72,0.24c23.19,0.11,46.38,0.25,69.57,0.4c6.94,0.05,13.89,0.06,20.83,0.15c0.38,0,0.76,0.02,1.14,0.02
			c-1.32-0.03-0.38,0.04,0.04,0.11c0.89,0.15-1.25-0.58,0.05,0.06s-0.94-0.73,0.23,0.2c0.4,0.32,0.28,0.72-0.08-0.14l0.24,0.4
			c0.3,0.6,0.28,0.55-0.05-0.15c0.13,0.57,0.16,0.61,0.1,0.14c-0.05-0.51-0.04-0.43,0.02,0.23c0.29,4.13,0.19,8.27-0.06,12.4
			c-0.24,3.94-0.58,7.88-0.93,11.81c-0.1,1.14-0.21,2.28-0.34,3.41c-0.05,0.4-0.09,0.8-0.14,1.2c-0.24,1.95,0.2-1.15-0.11,0.76
			c-0.34,2.11-0.7,4.22-1.17,6.31c-0.83,3.69-1.89,7.35-3.21,10.89c-0.35,0.94-0.73,1.86-1.11,2.78c-0.13,0.33-0.3,0.65-0.41,0.99
			c0.04-0.11,0.57-1.35,0.16-0.39c-0.32,0.74-0.63,1.48-0.96,2.22c-2.28,5.24-4.62,10.49-7.29,15.55c-1.37,2.6-3.02,5.05-4.73,7.44
			c-0.53,0.74-1.06,1.46-1.61,2.19c-0.7,0.93-0.2,0.27-0.05,0.07c-0.33,0.43-0.67,0.85-1.01,1.27c-1.25,1.54-2.54,3.05-3.88,4.51
			c-2.55,2.8-5.26,5.46-8.09,7.98c-1.35,1.2-2.73,2.37-4.14,3.5c-0.42,0.34-0.85,0.68-1.27,1.01c-0.91,0.72-0.27,0.21-0.07,0.06
			c-0.87,0.66-1.74,1.31-2.62,1.94c-6.35,4.58-13.13,8.55-20.19,11.93c-1.65,0.79-3.31,1.55-4.98,2.27
			c-0.33,0.15-0.67,0.29-1.01,0.43c1.2-0.51-0.48,0.19-0.59,0.24c-1.01,0.41-2.03,0.81-3.05,1.21c-3.64,1.39-7.34,2.64-11.08,3.75
			c-8.86,2.64-17.94,4.54-27.09,5.86c-1.63,0.24-3.9,0.52-6.27,0.79s-4.83,0.49-7.25,0.69c-4.63,0.38-9.26,0.63-13.9,0.79
			c-9.06,0.31-18.13,0.25-27.2-0.02c-3.91-0.11-6.81,3.93-5.79,7.6c2.21,7.96,3.74,16.17,4.91,24.34c0.07,0.47,0.13,0.93,0.2,1.4
			c-0.03-0.2-0.17-1.31-0.02-0.18c0.12,0.97,0.24,1.93,0.35,2.9c0.21,1.82,0.39,3.65,0.55,5.47c0.33,3.93,0.53,7.87,0.54,11.81
			c0.01,3.75-0.14,7.51-0.53,11.24c-0.05,0.5-0.11,1-0.17,1.49c-0.14,1.15-0.02,0.1,0.02-0.12c-0.15,0.97-0.3,1.94-0.48,2.91
			c-0.36,1.96-0.79,3.9-1.2,5.85c-0.98,4.61-2.03,9.21-3.61,13.65c-0.19,0.53-0.38,1.05-0.58,1.57c-0.13,0.35-0.27,0.69-0.41,1.03
			c0.24-0.58,0.22-0.55-0.06,0.09c-0.48,1-0.95,1.99-1.49,2.96s-1.11,1.9-1.73,2.81c-0.31,0.46-0.63,0.91-0.97,1.35
			c0.72-0.92-0.7,0.78-0.84,0.93c-2.09,2.34-2.48,6.21,0,8.49c2.28,2.1,6.25,2.5,8.49,0l0,0L216.77,278.64z"/>
		<path class="st0" d="M267.37,146.04c15.36,9.49,33.54,14.41,51.58,14.07c5.26-0.1,10.52-0.68,15.7-1.63
			c2.32-0.43,3.85-3.36,3.14-5.54c-0.8-2.49-3.05-3.6-5.54-3.14c-0.97,0.18-1.94,0.35-2.92,0.49c-0.28,0.04-0.56,0.08-0.84,0.12
			c0.19-0.03,0.84-0.1-0.06,0c-0.56,0.07-1.12,0.14-1.68,0.2c-2.1,0.22-4.21,0.37-6.33,0.45c-4.23,0.15-8.46,0-12.67-0.45
			c-0.49-0.05-0.98-0.11-1.47-0.17c-0.12-0.01-1-0.13-0.45-0.05c0.5,0.07-0.19-0.03-0.24-0.03c-1.12-0.16-2.23-0.34-3.34-0.54
			c-2.08-0.38-4.15-0.82-6.2-1.34c-4.11-1.04-8.11-2.4-12.05-3.96c-0.13-0.05-0.8-0.33-0.1-0.03c-0.26-0.11-0.52-0.22-0.78-0.33
			c-0.58-0.25-1.16-0.51-1.74-0.78c-1.09-0.5-2.17-1.03-3.23-1.57c-2.13-1.09-4.22-2.28-6.26-3.54s-5.04-0.5-6.16,1.61
			s-0.53,4.83,1.61,6.16l0,0H267.37z"/>
		<path class="st0" d="M186.8,84.15c2.69,0,5.52-1.17,7.42-3.08s3.19-4.81,3.08-7.42c-0.25-5.69-4.61-10.5-10.5-10.5
			c-2.69,0-5.52,1.17-7.42,3.08s-3.19,4.81-3.08,7.42C176.55,79.34,180.91,84.15,186.8,84.15L186.8,84.15z"/>
		<path class="st0" d="M61.41,152.69c-4.4-4.42-13.19-2.6-15.46,3.21c-1.64,4.17-0.05,9.06,2.87,12.46
			c2.92,3.39,6.98,5.57,11.01,7.53c19.37,9.46,40.09,15.79,60.71,22.08c7.25,2.21,14.49,4.42,21.74,6.63
			c28.99,8.85,58.15,17.73,88.22,21.53c2.91,0.37,12.89,2.7,9.78-12.22c-3.12-14.92-13.61-13.09-18.1-14.01
			c-18.66-3.8-37.32-7.6-55.83-12.04c-37.9-9.1-67.37-20.13-103.6-34.52l-1.33-0.67L61.41,152.69z"/>
	</g>
	<g>
		<g>
			<path class="st0" d="M614.99,136.97c-0.33,0.33-0.72,0.49-1.19,0.49h-45.92c-0.47,0-0.7,0.23-0.7,0.7v21.7
				c0,0.47,0.23,0.7,0.7,0.7h30.1c0.47,0,0.86,0.16,1.19,0.49s0.49,0.72,0.49,1.19v13.58c0,0.47-0.16,0.86-0.49,1.19
				s-0.72,0.49-1.19,0.49h-30.1c-0.47,0-0.7,0.23-0.7,0.7v22.68c0,0.47,0.23,0.7,0.7,0.7h45.92c0.47,0,0.86,0.16,1.19,0.49
				s0.49,0.72,0.49,1.19v13.58c0,0.47-0.16,0.86-0.49,1.19s-0.72,0.49-1.19,0.49h-64.68c-0.47,0-0.86-0.16-1.19-0.49
				s-0.49-0.72-0.49-1.19V122.2c0-0.47,0.16-0.86,0.49-1.19s0.72-0.49,1.19-0.49h64.68c0.47,0,0.86,0.16,1.19,0.49
				c0.33,0.33,0.49,0.72,0.49,1.19v13.58C615.48,136.25,615.32,136.64,614.99,136.97L614.99,136.97z"/>
			<path class="st0" d="M698.01,121.01c0.33,0.33,0.49,0.72,0.49,1.19v13.72c0,0.47-0.16,0.86-0.49,1.19s-0.72,0.49-1.19,0.49
				h-25.06c-0.47,0-0.7,0.23-0.7,0.7v78.54c0,0.47-0.16,0.86-0.49,1.19s-0.72,0.49-1.19,0.49H653c-0.47,0-0.86-0.16-1.19-0.49
				s-0.49-0.72-0.49-1.19V138.3c0-0.47-0.23-0.7-0.7-0.7h-24.36c-0.47,0-0.86-0.16-1.19-0.49s-0.49-0.72-0.49-1.19V122.2
				c0-0.47,0.16-0.86,0.49-1.19s0.72-0.49,1.19-0.49h70.56C697.29,120.52,697.68,120.68,698.01,121.01L698.01,121.01z"/>
			<path class="st0" d="M778.51,136.97c-0.33,0.33-0.72,0.49-1.19,0.49h-45.78c-0.47,0-0.7,0.23-0.7,0.7v21.7
				c0,0.47,0.23,0.7,0.7,0.7h30.1c0.47,0,0.86,0.16,1.19,0.49s0.49,0.72,0.49,1.19v13.58c0,0.47-0.16,0.86-0.49,1.19
				s-0.72,0.49-1.19,0.49h-30.1c-0.47,0-0.7,0.23-0.7,0.7v38.64c0,0.47-0.16,0.86-0.49,1.19s-0.72,0.49-1.19,0.49h-16.38
				c-0.47,0-0.86-0.16-1.19-0.49s-0.49-0.72-0.49-1.19V122.2c0-0.47,0.16-0.86,0.49-1.19s0.72-0.49,1.19-0.49h64.54
				c0.47,0,0.86,0.16,1.19,0.49c0.33,0.33,0.49,0.72,0.49,1.19v13.58C779,136.25,778.84,136.64,778.51,136.97L778.51,136.97z"/>
			<path class="st0" d="M789.99,218.03c-0.33-0.33-0.49-0.72-0.49-1.19V122.2c0-0.47,0.16-0.86,0.49-1.19
				c0.32-0.33,0.72-0.49,1.19-0.49h16.38c0.47,0,0.86,0.16,1.19,0.49c0.33,0.33,0.49,0.72,0.49,1.19v94.64
				c0,0.47-0.16,0.86-0.49,1.19s-0.72,0.49-1.19,0.49h-16.38C790.71,218.52,790.31,218.36,789.99,218.03z"/>
			<path class="st0" d="M883.09,121.01c0.33-0.33,0.72-0.49,1.19-0.49h16.38c0.47,0,0.86,0.16,1.19,0.49
				c0.33,0.33,0.49,0.72,0.49,1.19v94.64c0,0.47-0.16,0.86-0.49,1.19s-0.72,0.49-1.19,0.49h-15.82c-0.93,0-1.59-0.37-1.96-1.12
				l-36.26-59.92c-0.19-0.28-0.37-0.4-0.56-0.35c-0.19,0.05-0.28,0.26-0.28,0.63l0.28,59.08c0,0.47-0.16,0.86-0.49,1.19
				s-0.72,0.49-1.19,0.49H828c-0.47,0-0.86-0.16-1.19-0.49s-0.49-0.72-0.49-1.19V122.2c0-0.47,0.16-0.86,0.49-1.19
				s0.72-0.49,1.19-0.49h15.82c0.93,0,1.59,0.37,1.96,1.12l36.12,59.64c0.19,0.28,0.37,0.4,0.56,0.35c0.19-0.05,0.28-0.26,0.28-0.63
				l-0.14-58.8C882.6,121.73,882.76,121.34,883.09,121.01z"/>
			<path class="st0" d="M919.07,218.03c-0.33-0.33-0.49-0.72-0.49-1.19V122.2c0-0.47,0.16-0.86,0.49-1.19s0.72-0.49,1.19-0.49h35
				c7,0,13.14,1.24,18.41,3.71c5.27,2.47,9.36,5.95,12.25,10.43c2.89,4.48,4.34,9.66,4.34,15.54v38.64c0,5.88-1.45,11.06-4.34,15.54
				s-6.98,7.96-12.25,10.43s-11.41,3.71-18.41,3.71h-35C919.79,218.52,919.4,218.36,919.07,218.03z M939.02,201.58h16.94
				c4.29,0,7.77-1.45,10.43-4.34s4.04-6.77,4.13-11.62v-32.2c0-4.85-1.33-8.73-3.99-11.62s-6.23-4.34-10.71-4.34h-16.8
				c-0.47,0-0.7,0.23-0.7,0.7v62.72C938.32,201.35,938.55,201.58,939.02,201.58L939.02,201.58z"/>
			<path class="st0" d="M1072.65,136.97c-0.33,0.33-0.72,0.49-1.19,0.49h-45.92c-0.47,0-0.7,0.23-0.7,0.7v21.7
				c0,0.47,0.23,0.7,0.7,0.7h30.1c0.47,0,0.86,0.16,1.19,0.49s0.49,0.72,0.49,1.19v13.58c0,0.47-0.16,0.86-0.49,1.19
				s-0.72,0.49-1.19,0.49h-30.1c-0.47,0-0.7,0.23-0.7,0.7v22.68c0,0.47,0.23,0.7,0.7,0.7h45.92c0.47,0,0.86,0.16,1.19,0.49
				s0.49,0.72,0.49,1.19v13.58c0,0.47-0.16,0.86-0.49,1.19s-0.72,0.49-1.19,0.49h-64.68c-0.47,0-0.86-0.16-1.19-0.49
				s-0.49-0.72-0.49-1.19V122.2c0-0.47,0.16-0.86,0.49-1.19s0.72-0.49,1.19-0.49h64.68c0.47,0,0.86,0.16,1.19,0.49
				c0.33,0.33,0.49,0.72,0.49,1.19v13.58C1073.14,136.25,1072.98,136.64,1072.65,136.97L1072.65,136.97z"/>
			<path class="st0" d="M1138.66,217.26l-17.5-38.78c-0.19-0.37-0.47-0.56-0.84-0.56h-13.02c-0.47,0-0.7,0.23-0.7,0.7v38.22
				c0,0.47-0.16,0.86-0.49,1.19s-0.72,0.49-1.19,0.49h-16.38c-0.47,0-0.86-0.16-1.19-0.49s-0.49-0.72-0.49-1.19V122.2
				c0-0.47,0.16-0.86,0.49-1.19s0.72-0.49,1.19-0.49h40.04c5.97,0,11.22,1.21,15.75,3.64s8.03,5.88,10.5,10.36s3.71,9.66,3.71,15.54
				c0,6.35-1.59,11.78-4.76,16.31s-7.61,7.72-13.3,9.59c-0.47,0.19-0.61,0.51-0.42,0.98l19.04,39.62c0.19,0.37,0.28,0.65,0.28,0.84
				c0,0.75-0.51,1.12-1.54,1.12h-17.22C1139.69,218.52,1139.03,218.1,1138.66,217.26L1138.66,217.26z M1106.6,138.16v23.94
				c0,0.47,0.23,0.7,0.7,0.7h18.34c3.92,0,7.12-1.17,9.59-3.5s3.71-5.37,3.71-9.1s-1.24-6.79-3.71-9.17s-5.67-3.57-9.59-3.57h-18.34
				C1106.83,137.46,1106.6,137.69,1106.6,138.16L1106.6,138.16z"/>
		</g>
		<g>
			<path class="st0" d="M522.24,124.29c4.67,2.52,8.28,6.08,10.85,10.69c2.57,4.61,3.85,9.9,3.85,15.87
				c0,5.87-1.33,11.04-3.99,15.52s-6.39,7.95-11.2,10.42c-4.81,2.47-10.34,3.7-16.59,3.7h-19.88c-0.47,0-0.7,0.23-0.7,0.7v35.65
				c0,0.47-0.16,0.86-0.49,1.19c-0.33,0.33-0.72,0.49-1.19,0.49h-16.38c-0.47,0-0.86-0.16-1.19-0.49c-0.33-0.33-0.49-0.72-0.49-1.19
				V122.2c0-0.47,0.16-0.86,0.49-1.19c0.33-0.33,0.72-0.49,1.19-0.49H506C512.16,120.52,517.57,121.78,522.24,124.29z
				 M513.42,160.99c2.61-2.47,3.92-5.71,3.92-9.72c0-4.1-1.31-7.41-3.92-9.93c-2.61-2.52-6.07-3.77-10.36-3.77h-17.78
				c-0.47,0-0.7,0.23-0.7,0.7V164c0,0.47,0.23,0.7,0.7,0.7h17.78C507.35,164.7,510.81,163.46,513.42,160.99z"/>
		</g>
	</g>
</g>
</svg>
