<?xml version="1.0" encoding="UTF-8"?>
<svg id="Layer_2" data-name="Layer 2" xmlns="http://www.w3.org/2000/svg" viewBox="0 0 824.59 1492.04">
  <defs>
    <style>
      .cls-1 {
        fill: #fff;
      }

      .cls-2 {
        fill: #fec327;
      }

      .cls-3 {
        fill: none;
        stroke: #000;
        stroke-miterlimit: 10;
        stroke-width: 3px;
      }
    </style>
  </defs>
  <g id="Layer_1-2" data-name="Layer 1">
    <g>
      <circle cx="412.29" cy="12.09" r="12.09"/>
      <polyline class="cls-3" points="59.47 622.35 412.29 12.09 762.65 608.97"/>
      <path d="m215.07,1018.79s14.37,95.14,0,107.04c-14.37,11.89-39.15,5.45-51.54,13.88-12.39,8.42-17.34,22.3-15.36,35.18,1.98,12.88,12.39,25.77,28.25,31.22,15.86,5.45,74.83,4.46,91.68-15.86,16.85-20.32,33.7-92.17,63.93-90.19,19.82,0,238.36,202.18,180.87,295.84-10.46,17.05-43.61,18.83-65.91,15.36-22.3-3.47-34.69,20.81-34.69,41.63,0,20.81,23.29,39.15,56.49,39.15s68.39-17.34,89.2-31.22c20.81-13.88,45.59-45.09,46.58-82.76s-8.55-70.42-37.66-116.45c-29.11-46.04-159.57-147.18-74.33-176.41,18.8-6.45,58.39,11.4,104.02,3.96,45.63-7.43,90.23-70.37,90.23-70.37H215.07Z"/>
      <rect class="cls-2" y="580.73" width="824.59" height="450.95" rx="22.74" ry="22.74"/>
      <g>
        <path d="m318.24,870.85v-26.89h-65.21v-15.83l46.94-88.44h21.46l-46.38,86.76h43.19v-29.14h18.18v29.14h20.24v17.52h-20.24v26.89h-18.18Z"/>
        <path d="m425.99,873.66c-8.37,0-15.9-1.78-22.58-5.34-6.68-3.56-12.34-8.49-16.96-14.8-4.62-6.31-8.15-13.58-10.59-21.83-2.44-8.24-3.65-17.05-3.65-26.42s1.22-18.27,3.65-26.51c2.44-8.25,5.96-15.51,10.59-21.78,4.62-6.28,10.27-11.2,16.96-14.76,6.68-3.56,14.21-5.34,22.58-5.34s15.88,1.78,22.53,5.34,12.3,8.48,16.96,14.76,8.21,13.54,10.68,21.78c2.47,8.24,3.7,17.08,3.7,26.51s-1.23,18.18-3.7,26.42c-2.47,8.25-6.03,15.52-10.68,21.83-4.65,6.31-10.3,11.24-16.96,14.8-6.65,3.56-14.16,5.34-22.53,5.34Zm0-18.55c5,0,9.52-1.14,13.59-3.42,4.06-2.28,7.56-5.57,10.49-9.88s5.2-9.54,6.79-15.69c1.59-6.15,2.39-13.1,2.39-20.85,0-10.37-1.39-19.27-4.17-26.7-2.78-7.43-6.67-13.15-11.67-17.15-5-4-10.81-6-17.43-6-4.93,0-9.45,1.14-13.54,3.42-4.09,2.28-7.6,5.57-10.54,9.88-2.94,4.31-5.2,9.54-6.79,15.69-1.59,6.15-2.39,13.1-2.39,20.85,0,10.37,1.39,19.27,4.17,26.7,2.78,7.43,6.67,13.15,11.66,17.15,5,4,10.81,6,17.43,6Z"/>
        <path d="m558.18,870.85v-26.89h-65.21v-15.83l46.94-88.44h21.46l-46.38,86.76h43.19v-29.14h18.18v29.14h20.24v17.52h-20.24v26.89h-18.18Z"/>
      </g>
      <path d="m660.07,584.03H181.04s-7.93,55.5-46.91,55.5-45.58-28.3-46.9-40.85c-1.32-12.55-.58-36.46,13.86-54.3,14.95-18.46,74.65-38.72,102.21-47.31,8.7-2.71,15.39-9.71,17.72-18.53,3.22-12.13,8.4-30.65,14.88-50.26,11.2-33.9,31.03-68.25,40.94-68.25,10.93,0,23.58,31.12,29.81,48.59,2.41,6.75,9.08,10.99,16.22,10.3,21.36-2.04,65.71-5.86,94.71-5.37,28.12.47,68.34,6,89.01,9.12,7.71,1.16,15.18-3.16,18.06-10.4,7.07-17.83,21.03-48.47,33.67-48.93,13.64-.51,33.85,78.18,42.6,115.25,2.69,11.38,11.69,20.18,23.14,22.59,30.39,6.39,88.55,20.42,105.39,37.26,15.05,15.05,23.13,47.57,18.5,66.73-4.63,19.16-11.88,31.05-38.32,31.05-35.02,0-49.55-52.2-49.55-52.2Z"/>
      <path class="cls-1" d="m505.46,463.78c-40.97,0-48.48,31.71-48.51,45.59-.03,13.88,6.23,54.84,51.82,54.84,54.84,0,49.42-34.36,49.55-47.57s-11.89-52.86-52.86-52.86Z"/>
      <path class="cls-1" d="m333.67,457.83c-46.91,0-52.2,41.63-52.2,53.52,0,11.89,5.29,52.86,48.89,52.86,40.3,0,54.18-34.36,54.18-53.19,0-15.53-16.52-53.19-50.88-53.19Z"/>
      <path d="m507.68,480.63c-10.64,0-21.05,8.26-21.05,33.37s10.38,32.05,21.05,32.05,20.58-8.42,20.58-32.71-9.93-32.71-20.58-32.71Z"/>
      <path d="m333.01,478.15c-10.41,0-24.78,8.26-24.78,32.87s11.89,35.02,24.78,35.02,24.78-12.39,24.78-35.18-14.37-32.71-24.78-32.71Z"/>
    </g>
  </g>
</svg>