<svg width="22" height="21" viewBox="0 0 22 21" fill="none" xmlns="http://www.w3.org/2000/svg">
<path d="M15.093 14.349L15.6074 13.8348L14.4128 12.627L13.9006 13.1412L15.093 14.349ZM17.3323 13.6191L19.4881 14.7985L20.2947 13.3024L18.14 12.1241L17.3323 13.6191ZM19.9021 17.1415L18.3002 18.7455L19.4926 19.9522L21.0945 18.3493L19.9021 17.1415ZM17.3233 19.2609C15.6875 19.4153 11.4572 19.2779 6.87483 14.6941L5.6813 15.9008C10.681 20.9035 15.4405 21.1487 17.4812 20.9568L17.3233 19.2609ZM6.87483 14.6941C2.50796 10.3237 1.78372 6.6492 1.69347 5.05429L0.00357993 5.15078C0.11639 7.15775 1.01323 11.2307 5.6813 15.9008L6.87483 14.6941ZM8.42597 7.67879L8.74973 7.35413L7.55846 6.14745L7.2347 6.47097L8.42597 7.67879ZM9.00694 3.22781L7.58554 1.31619L6.23069 2.33784L7.65209 4.24832L9.00694 3.22781ZM2.80127 0.899586L1.03015 2.67044L2.22368 3.87826L3.99367 2.1074L2.80127 0.899586ZM7.83033 7.07488C7.23244 6.47097 7.23244 6.47097 7.23244 6.47324H7.23018L7.2268 6.47779C7.17319 6.53218 7.12519 6.59189 7.08353 6.65601C7.02261 6.74682 6.95606 6.86601 6.89965 7.01699C6.76233 7.40672 6.72812 7.82569 6.80038 8.23275C6.95154 9.21467 7.62389 10.5122 9.34537 12.2353L10.5389 11.0275C8.92684 9.41559 8.54329 8.43481 8.47222 7.97166C8.43838 7.75144 8.47335 7.64246 8.4835 7.61749C8.49027 7.60236 8.49027 7.60008 8.4835 7.61068C8.47344 7.62634 8.46212 7.64115 8.44966 7.65495L8.43838 7.6663L8.4271 7.67652L7.83033 7.07488ZM9.34537 12.2353C11.068 13.9585 12.3642 14.6305 13.3411 14.7804C13.8408 14.8576 14.2436 14.7963 14.5493 14.6816C14.7205 14.6186 14.8805 14.5281 15.0231 14.4137L15.0795 14.3626L15.0874 14.3558L15.0908 14.3524L15.0919 14.3502C15.0919 14.3502 15.093 14.349 14.4963 13.7451C13.8984 13.1412 13.9018 13.1401 13.9018 13.1401L13.904 13.1378L13.9063 13.1355L13.913 13.1299L13.9243 13.1185L13.9672 13.0844C13.9777 13.0776 13.9751 13.0784 13.9593 13.0867C13.9311 13.0969 13.8205 13.1321 13.5983 13.0981C13.1313 13.0254 12.1498 12.6395 10.5389 11.0275L9.34537 12.2353ZM7.58554 1.31506C6.43487 -0.228768 4.17416 -0.473963 2.80127 0.899586L3.99367 2.1074C4.59382 1.5069 5.65874 1.56933 6.23069 2.33784L7.58554 1.31506ZM1.6946 5.05542C1.67204 4.66266 1.85141 4.25173 2.22368 3.87939L1.02902 2.67158C0.423233 3.27776 -0.0539531 4.13594 0.00357993 5.15078L1.6946 5.05542ZM18.3002 18.7455C17.9911 19.0565 17.6572 19.2314 17.3244 19.262L17.4812 20.9568C18.3104 20.8785 18.9884 20.4585 19.4938 19.9533L18.3002 18.7455ZM8.74973 7.35413C9.86091 6.24281 9.94326 4.48671 9.00807 3.22894L7.65322 4.24946C8.10785 4.86131 8.04016 5.66387 7.55733 6.14859L8.74973 7.35413ZM19.4892 14.7997C20.4109 15.3037 20.5542 16.4911 19.9032 17.1427L21.0968 18.3493C22.6084 16.8362 22.1425 14.3127 20.2958 13.3035L19.4892 14.7997ZM15.6074 13.8359C16.0406 13.4023 16.7378 13.2956 17.3334 13.6202L18.1412 12.1252C16.9183 11.4555 15.4021 11.6405 14.4139 12.6281L15.6074 13.8359Z" fill="black"/>
</svg>
