<svg width="96" height="96" viewBox="0 0 96 96" fill="none" xmlns="http://www.w3.org/2000/svg">
<path d="M89.1429 54.8571H54.8571V89.1429C54.8571 90.9615 54.1347 92.7056 52.8487 93.9916C51.5628 95.2776 49.8186 96 48 96C46.1814 96 44.4372 95.2776 43.1513 93.9916C41.8653 92.7056 41.1429 90.9615 41.1429 89.1429V54.8571H6.85714C5.03852 54.8571 3.29438 54.1347 2.00841 52.8487C0.722448 51.5628 0 49.8186 0 48C0 46.1814 0.722448 44.4372 2.00841 43.1513C3.29438 41.8653 5.03852 41.1429 6.85714 41.1429H41.1429V6.85714C41.1429 5.03852 41.8653 3.29437 43.1513 2.00841C44.4372 0.722445 46.1814 0 48 0C49.8186 0 51.5628 0.722445 52.8487 2.00841C54.1347 3.29437 54.8571 5.03852 54.8571 6.85714V41.1429H89.1429C90.9615 41.1429 92.7056 41.8653 93.9916 43.1513C95.2776 44.4372 96 46.1814 96 48C96 49.8186 95.2776 51.5628 93.9916 52.8487C92.7056 54.1347 90.9615 54.8571 89.1429 54.8571Z" fill="#C4C9D4"/>
</svg>
